<svg viewBox="0 0 91 78" fill="none" xmlns="http://www.w3.org/2000/svg">
    <path fill-rule="evenodd" clip-rule="evenodd" d="M62.0361 5.48758C62.2439 5.69618 62.4469 5.90939 62.6449 6.12703C64.6707 8.35707 66.2384 11.5121 67.1892 14.7958C68.1176 17.9971 68.4617 21.3352 68.0769 24.0699C73.5048 22.4592 78.9144 20.6796 84.3077 18.719L86.4231 17.9509C81.6955 20.6334 76.9497 23.2958 72.2343 26.0004C70.5587 26.4488 68.9198 26.8811 67.3073 27.2974C66.6883 29.1775 65.7579 31.0295 64.4386 32.791C63.2251 34.4138 61.6819 35.9561 59.7457 37.3738C59.6683 37.4643 59.5889 37.5568 59.5095 37.6473C55.9852 41.6489 50.9197 44.3233 45.1436 44.7215C39.3737 45.1176 33.9865 43.1671 29.939 39.6903C28.6201 38.5574 27.4486 37.2673 26.4513 35.8496C22.8578 36.4025 18.851 37.0239 15.3268 37.5246L11.5745 35.2161C16.074 34.7194 20.5552 34.1464 25.018 33.4868C23.7679 31.0738 22.98 28.3772 22.7764 25.5017C22.3753 19.8029 24.3502 14.4822 27.8704 10.4846C30.0428 8.01724 32.8016 6.05464 35.9512 4.81997C39.6485 1.89819 44.034 0.184939 48.4256 0.0140158C53.2611 -0.172994 58.0986 1.50406 62.0361 5.48758ZM33.0642 34.822C32.1867 34.9668 31.3112 35.1055 30.4357 35.2383L30.2281 35.2704C30.8144 35.9561 31.4517 36.5956 32.1358 37.1828C35.5359 40.1025 40.0659 41.7414 44.9197 41.4076C45.5753 41.3613 46.2207 41.2809 46.8539 41.1683C45.4124 41.0838 43.9506 40.8606 42.5132 40.4826C39.0011 39.5636 35.6336 37.7337 33.0642 34.822ZM62.0728 6.63578C61.8753 6.41861 61.6778 6.21149 61.4864 6.01643C57.7138 2.19982 53.0819 0.593143 48.4562 0.774121C44.9726 0.908848 41.4891 2.05705 38.372 4.03574C39.6379 3.71033 40.9314 3.50098 42.2363 3.41036C48.0042 3.01422 53.3934 4.96475 57.4409 8.44153C61.4925 11.9203 64.2004 16.9253 64.6015 22.6302C64.6605 23.4526 64.6687 24.265 64.63 25.0693C65.5075 24.82 66.3829 24.5686 67.2584 24.3112C67.7124 21.6207 67.3887 18.2465 66.4481 15.003C65.5278 11.8218 64.0171 8.77734 62.0728 6.63578ZM31.1667 11.8479C30.1202 13.9553 29.3669 16.3784 29.0737 18.9563C28.6013 23.0725 29.3017 27.5829 31.8345 31.8399C31.9403 32.0169 32.0462 32.1878 32.1561 32.3567C37.6024 31.4357 43.0283 30.378 48.4399 29.1675C52.6971 28.2143 56.9442 27.1687 61.181 26.0225C61.2991 24.9889 61.3235 23.9272 61.2482 22.8514C60.9082 18.0635 58.6401 13.8668 55.2441 10.9491C51.844 8.0293 47.314 6.39045 42.4602 6.72426C38.0116 7.03192 34.0679 8.94425 31.1667 11.8479ZM61.5882 34.8461C62.4352 34.0378 63.1783 33.1992 63.8217 32.3386C64.9233 30.8706 65.7975 29.2489 66.4155 27.5266C65.6907 27.7136 64.974 27.8966 64.2615 28.0756C63.7828 30.4708 62.8777 32.7632 61.5882 34.8461ZM59.99 29.1333C54.8369 30.5348 50.2132 31.6046 44.9787 32.6261C41.3079 33.342 37.6248 34.0518 33.9621 34.6732C36.3788 37.2592 39.4796 38.902 42.7086 39.7486C45.0642 40.3659 47.487 40.559 49.7612 40.3881C52.5851 39.3665 55.0507 37.6573 56.9706 35.4775C58.6285 33.5959 59.8574 31.3843 60.5743 28.9925L59.99 29.1333ZM31.3377 32.4954L31.1728 32.224C28.5443 27.8101 27.8195 23.1369 28.3082 18.8739C28.5138 17.0782 28.9332 15.3549 29.5175 13.7542C27.1252 16.9595 25.8283 20.9913 26.1317 25.2805C26.3292 28.0856 27.1904 30.6857 28.5525 32.9479C29.4809 32.8011 30.4093 32.6503 31.3377 32.4954Z" fill="white"/>
    <path fill-rule="evenodd" clip-rule="evenodd" d="M12.3828 66.0647C15.221 62.3909 16.6421 60.1508 16.6421 59.3344C16.6421 58.4295 15.7768 58.154 15.0377 57.9469C14.7283 57.8705 14.5776 57.7257 14.5776 57.5246C14.5776 57.2089 14.7608 57.0541 15.1253 57.0541C15.2311 57.0541 15.3655 57.0641 15.5386 57.0842C16.8457 57.1888 17.8372 57.2391 18.5233 57.2391C19.2705 57.2391 20.148 57.1888 21.1721 57.0842C21.3655 57.0641 21.5264 57.0541 21.6567 57.0541C21.956 57.0541 22.1005 57.1888 22.1005 57.4623C22.1005 57.7197 21.956 57.8584 21.6567 57.8906C20.9726 57.963 20.3455 58.1842 19.7714 58.5662C19.1911 58.9423 18.4968 59.6662 17.6763 60.7279C16.8558 61.7977 15.9458 63.0565 14.9441 64.5063C13.9403 65.9622 13.3865 66.8429 13.2868 67.1647C13.187 67.4844 13.1361 68.5783 13.1361 70.4564C13.1361 73.3058 13.2664 75.0131 13.527 75.5821C13.7876 76.1532 14.4351 76.4367 15.4653 76.4367C15.8358 76.4367 16.0191 76.5815 16.0191 76.8771C16.0191 77.1808 15.8155 77.3356 15.4022 77.3356C14.0096 77.3356 12.5823 77.1184 11.1816 77.1184C10.0679 77.1184 8.80356 77.1808 7.38652 77.3054C7.12185 77.3255 6.91214 77.3356 6.76148 77.3356C6.36853 77.3356 6.17512 77.1908 6.17512 76.9012C6.17512 76.6539 6.32171 76.5152 6.61896 76.485C7.62269 76.3664 8.24978 76.0346 8.51038 75.4936C8.77302 74.9507 8.90332 73.7643 8.90332 71.9264C8.90332 70.2714 8.80967 69.1655 8.62032 68.6185C8.43301 68.0675 7.87312 67.05 6.94268 65.558C6.03976 64.1143 5.11121 62.6863 4.15746 61.2749C3.23313 59.9075 2.52257 59.0368 2.0258 58.6587C1.53513 58.2867 0.997628 58.0494 0.427555 57.9529C0.140482 57.9006 0 57.7659 0 57.5487C0 57.2391 0.17713 57.0842 0.537498 57.0842C0.700376 57.0842 0.954873 57.1003 1.30099 57.1325C2.88294 57.2451 4.04345 57.3014 4.77436 57.3014C5.94098 57.3014 7.24604 57.2511 8.69973 57.1466C8.99087 57.1265 9.24333 57.1164 9.44693 57.1164C9.79712 57.1164 9.96814 57.2511 9.96814 57.5125C9.96814 57.7659 9.78083 57.9107 9.41028 57.9529C8.3699 58.0494 7.84665 58.4054 7.84665 59.0267C7.84665 59.6802 9.35735 62.0289 12.3828 66.0647ZM79.3705 56.6519H80.472C81.8157 59.5314 83.7173 64.0679 86.1727 70.2554C87.3067 73.0987 88.0845 74.822 88.5141 75.4253C88.9376 76.0305 89.6155 76.3965 90.5419 76.5313C90.8493 76.5715 91 76.7002 91 76.9274C91 77.2431 90.8025 77.3979 90.4055 77.3979C90.1917 77.3979 89.6379 77.3617 88.738 77.2893C87.6773 77.1968 86.7835 77.1506 86.0628 77.1506C85.3583 77.1506 84.438 77.1908 83.3101 77.2733C82.4632 77.3356 81.9033 77.3658 81.6427 77.3658C81.1723 77.3658 80.9362 77.223 80.9362 76.9334C80.9362 76.7163 81.099 76.5936 81.4289 76.5614C82.683 76.4488 83.3101 75.9582 83.3101 75.0854C83.3101 74.6772 83.1208 73.9352 82.7502 72.8514L80.4964 67.2129C79.7858 65.4373 79.0264 63.6879 78.3199 61.9163C77.3854 64.4822 73.9609 72.4271 73.91 74.627C73.8958 75.1779 74.1279 75.6022 74.5676 75.9059C75.0054 76.2115 75.4818 76.3865 75.9949 76.4367C76.3858 76.479 76.5792 76.6338 76.5792 76.9012C76.5792 77.1707 76.3695 77.3054 75.9521 77.3054C75.7851 77.3054 75.3576 77.2833 74.6613 77.2431C73.7634 77.1808 73.1038 77.1506 72.6966 77.1506C71.8924 77.1506 71.1248 77.1968 70.3979 77.2954C70.2147 77.3195 70.058 77.3356 69.9378 77.3356C69.5571 77.3356 69.3678 77.1808 69.3678 76.8771C69.3678 76.6539 69.494 76.5091 69.7403 76.4367C70.3511 76.2678 70.8316 76.0607 71.1818 75.8073C71.5259 75.56 71.9025 75.0814 72.3057 74.3736C72.7129 73.6618 73.1934 72.5216 73.7532 70.9511C75.0115 67.4221 76.8825 62.6583 79.3705 56.6519ZM29.029 56.6519H30.1304C31.4742 59.5314 33.3758 64.0679 35.8311 70.2554C36.9652 73.0987 37.745 74.822 38.1725 75.4253C38.596 76.0305 39.276 76.3965 40.2004 76.5313C40.5078 76.5715 40.6605 76.7002 40.6605 76.9274C40.6605 77.2431 40.461 77.3979 40.0639 77.3979C39.8502 77.3979 39.2964 77.3617 38.3985 77.2893C37.3378 77.1968 36.444 77.1506 35.7232 77.1506C35.0168 77.1506 34.0965 77.1908 32.9686 77.2733C32.1216 77.3356 31.5637 77.3658 31.3011 77.3658C30.8308 77.3658 30.5967 77.223 30.5967 76.9334C30.5967 76.7163 30.7575 76.5936 31.0873 76.5614C32.3415 76.4488 32.9686 75.9582 32.9686 75.0854C32.9686 74.6772 32.7813 73.9352 32.4087 72.8514L30.1548 67.2129C29.4463 65.4373 28.6849 63.6879 27.9784 61.9163C27.0439 64.4822 23.6194 72.4271 23.5685 74.627C23.5562 75.1779 23.7883 75.6022 24.2261 75.9059C24.6659 76.2115 25.1423 76.3865 25.6533 76.4367C26.0442 76.479 26.2376 76.6338 26.2376 76.9012C26.2376 77.1707 26.03 77.3054 25.6126 77.3054C25.4436 77.3054 25.016 77.2833 24.3218 77.2431C23.4219 77.1808 22.7643 77.1506 22.3571 77.1506C21.5508 77.1506 20.7832 77.1968 20.0564 77.2954C19.8752 77.3195 19.7184 77.3356 19.5983 77.3356C19.2155 77.3356 19.0282 77.1808 19.0282 76.8771C19.0282 76.6539 19.1524 76.5091 19.3988 76.4367C20.0096 76.2678 20.4901 76.0607 20.8403 75.8073C21.1864 75.56 21.563 75.0814 21.9641 74.3736C22.3713 73.6618 22.8538 72.5216 23.4117 70.9511C24.672 67.4221 26.541 62.6583 29.029 56.6519ZM51.7912 58.2827C51.6303 59.8311 51.5468 61.7655 51.5468 64.088C51.5468 65.3287 51.5631 73.6356 52.0131 75.1357C52.3226 76.2176 52.5282 76.5031 53.5726 76.5755C53.9697 76.6077 54.1671 76.7464 54.1671 76.9937C54.1671 77.2733 53.9961 77.412 53.6459 77.412L53.2164 77.3959L51.4003 77.3195C48.9286 77.3195 47.4301 77.3296 46.8967 77.3456C45.9153 77.3798 44.9991 77.4241 44.0178 77.3818C43.7837 77.3296 43.6676 77.2049 43.6676 77.0098C43.6676 76.6599 43.9567 76.5715 44.2581 76.5715C45.9194 76.5715 46.9191 75.9763 47.143 74.2389C47.253 73.4225 47.3039 71.484 47.3039 68.7693C47.3039 65.2966 47.2591 61.7414 46.917 58.2827C45.2333 58.2827 44.2927 58.3491 43.5394 58.4838C41.7457 58.8176 40.4019 60.382 39.6832 61.9525C39.5061 62.3346 39.3066 62.5256 39.0826 62.5256C38.7324 62.5256 38.5553 62.3748 38.5553 62.0712C38.5553 61.5946 38.6428 60.9571 38.71 60.4182C38.8485 59.27 38.9564 58.152 39.1824 57.0138C44.48 57.1566 48.1284 57.229 50.6693 57.229H59.3569C61.8978 57.229 65.5462 57.1566 70.8438 57.0138C71.0698 58.152 71.1777 59.27 71.3162 60.4182C71.3834 60.9571 71.4709 61.5946 71.4709 62.0712C71.4709 62.3748 71.2938 62.5256 70.9436 62.5256C70.7196 62.5256 70.5201 62.3346 70.343 61.9525C69.6243 60.382 68.2785 58.8176 66.4868 58.4838C65.7335 58.3491 64.7929 58.2827 63.1092 58.2827C62.7671 61.7414 62.7223 65.2966 62.7223 68.7693C62.7223 71.484 62.7732 73.4225 62.8832 74.2389C63.1071 75.9763 64.1068 76.5715 65.7681 76.5715C66.0695 76.5715 66.3586 76.6599 66.3586 77.0098C66.3586 77.2049 66.2425 77.3296 66.0084 77.3818C65.027 77.4241 64.1088 77.3798 63.1295 77.3456C62.5961 77.3296 61.0956 77.3195 58.6259 77.3195L56.8098 77.3959L56.3803 77.412C56.0301 77.412 55.859 77.2733 55.859 76.9937C55.859 76.7464 56.0565 76.6077 56.4536 76.5755C57.498 76.5031 57.7036 76.2176 58.0131 75.1357C58.4631 73.6356 58.4794 65.3287 58.4794 64.088C58.4794 61.7655 58.3959 59.8311 58.233 58.2827H51.7912Z" fill="white"/>
</svg>
