<svg width="99" height="24" viewBox="0 0 99 24" fill="none" xmlns="http://www.w3.org/2000/svg">
<path d="M25.9012 11.7183H23.9442C23.8291 9.57747 23.0233 7.49296 21.6994 5.80282C20.3181 4.11268 18.4762 2.87324 16.3465 2.25352C15.4256 1.97183 14.3896 1.85916 13.3535 1.91549H0V0H13.4111C14.5047 0 15.5407 0.112676 16.5768 0.338028C19.1669 1.01408 21.4692 2.47887 23.1384 4.56338C24.8076 6.59155 25.7861 9.12676 25.9012 11.7183Z" fill="#1F1F1F"/>
<path d="M19.8576 22.084V23.9995H12.5477C11.4541 23.9995 10.418 23.9431 9.38199 23.6615C6.67675 22.9854 4.31687 21.4079 2.59012 19.2671C0.920931 17.0699 0 14.3657 0 11.6615V6.08398H13.6989C13.9866 6.08398 14.2169 6.14032 14.4471 6.14032C14.6198 6.14032 14.7925 6.19666 14.9651 6.253C15.3105 6.36567 15.7134 6.47835 16.0587 6.64736C16.4041 6.81638 16.7494 6.98539 17.0372 7.21075C17.325 7.4361 17.6704 7.66145 17.9582 7.94314C18.1308 8.11215 18.246 8.22483 18.4186 8.39384C19.2244 9.35159 19.7425 10.4784 19.8576 11.7178H17.843C17.7279 10.9291 17.3826 10.253 16.8646 9.63328C16.7494 9.52061 16.6919 9.40793 16.5768 9.29525C16.289 9.01356 16.0012 8.78821 15.7134 8.6192C15.2529 8.33751 14.7925 8.16849 14.2744 8.05582C13.9866 7.99948 13.6413 7.94314 13.3535 7.99948H1.95698V11.6615C1.95698 13.915 2.70524 16.1685 4.08663 17.9713C5.46803 19.7741 7.42501 21.1262 9.61222 21.746C10.5907 22.0277 11.5692 22.1403 12.6053 22.084H19.8576Z" fill="#1F1F1F"/>
<path d="M25.9026 15.9996V23.9432H24.0032V17.9151H12.2613C12.0311 17.9151 11.8009 17.9151 11.5706 17.8587C11.398 17.8024 11.1677 17.8024 10.995 17.746C10.6497 17.6334 10.2468 17.5207 9.90144 17.3517C9.55609 17.1827 9.21074 17.0136 8.92295 16.7883C8.63516 16.5629 8.34737 16.3376 8.05958 16.1122L8.00202 16.0559C7.82934 15.8869 7.71423 15.7742 7.59911 15.6052C6.7933 14.6474 6.27527 13.5207 6.16016 12.2812H8.05958C8.17469 13.07 8.52004 13.8024 9.03807 14.4221L9.32586 14.7038C9.55609 14.9855 9.84388 15.2108 10.1892 15.3798C10.6497 15.6615 11.1102 15.8305 11.6282 15.9432C11.916 15.9996 12.2613 16.0559 12.5491 15.9996H25.9026Z" fill="#1F1F1F"/>
<path d="M58.3632 1.80273H56.4062V3.71823H58.3632V1.80273Z" fill="#1F1F1F"/>
<path d="M77.9335 1.80273H75.9766V3.71823H77.9335V1.80273Z" fill="#1F1F1F"/>
<path d="M98.9999 16H97.043V17.9155H98.9999V16Z" fill="#1F1F1F"/>
<path d="M58.3632 6.02832H56.4062V17.9156H58.3632V6.02832Z" fill="#1F1F1F"/>
<path d="M91.9762 6.02809V7.49288L91.5157 7.15485C90.3645 6.25344 88.9831 5.80273 87.5442 5.80273C83.9756 5.80273 81.0977 8.5633 81.0977 11.9999C81.0977 15.4365 83.9756 18.1971 87.5442 18.1971C88.9831 18.1971 90.3645 17.7464 91.5157 16.845L91.9762 16.507V17.9718H93.9331V6.02809H91.9762ZM91.9762 12.0563C91.9186 14.3661 89.9041 16.2816 87.4866 16.2816C85.0116 16.2816 82.9971 14.3661 82.9971 11.9999C82.9971 9.63372 85.0116 7.71823 87.4866 7.71823C89.9041 7.71823 91.9186 9.63372 91.9762 11.9436V12.0563Z" fill="#1F1F1F"/>
<path d="M53.2991 6.02802V12.0562C53.2991 13.69 52.7811 15.0421 51.6299 16.1689C51.5148 16.2815 51.3997 16.3942 51.2845 16.5069C50.2485 17.4083 49.0973 17.859 47.7159 17.859H47.4281C46.1043 17.8027 44.8956 17.352 43.9171 16.5069C43.802 16.3942 43.6869 16.2815 43.5717 16.1689L43.5142 16.1125C43.4566 16.0562 43.4566 16.0562 43.3991 15.9999L42.9386 15.3801L42.4781 15.9999C42.4206 16.0562 42.4206 16.0562 42.4206 16.0562L42.3055 16.1125L42.2479 16.2252C42.1328 16.3379 42.0177 16.4506 41.9026 16.5069C40.8665 17.4646 39.7153 17.9153 38.3915 17.9153H38.1037C36.7799 17.859 35.5712 17.4083 34.5927 16.5632C34.4775 16.4506 34.3624 16.3379 34.2473 16.2252C33.1537 15.0984 32.5781 13.7463 32.5781 12.1125V6.02802H34.5351V12.3379C34.5927 13.2393 34.938 14.028 35.5712 14.7041C36.2619 15.4365 37.1252 15.8308 38.1037 15.8308H38.3339C39.3124 15.8308 40.1758 15.4365 40.8665 14.7041C41.5572 13.9717 41.9026 13.1266 41.9026 12.1125V6.02802H43.8595V12.0562C43.8595 13.0703 44.2049 13.9717 44.8956 14.6477C45.5863 15.3801 46.4497 15.7745 47.4281 15.7745H47.6584C48.6369 15.7745 49.5002 15.3801 50.2485 14.6477C50.9392 13.9717 51.227 13.1266 51.2845 12.1689V5.97168H53.2991V6.02802Z" fill="#1F1F1F"/>
<path d="M77.9349 6.02832V19.4931C77.9349 19.5495 77.9349 19.6058 77.9349 19.7185C77.8773 20.3945 77.6471 21.0142 77.3017 21.5776C76.9564 22.1973 76.4959 22.648 75.9779 23.0424L75.575 23.3241C74.8843 23.7185 74.1936 23.8875 73.4453 23.9438V22.0283C74.136 21.972 74.7692 21.634 75.2296 21.1269C75.6901 20.6199 75.9779 20.0002 75.9779 19.3241V6.02832H77.9349Z" fill="#1F1F1F"/>
<path d="M72.8692 7.94314L64.4657 16.0558H72.8692V17.915H61.4727V16.2812L70.1064 7.94314H61.4727V6.08398H72.8692V7.94314Z" fill="#1F1F1F"/>
</svg>
